#!OML:ASF F:\VICON\USERDATA\INSTALL\rory3\rory3.ASF
:FULLY-SPECIFIED
:DEGREES
127
root 0.095004 18.9229 3.68436 -31.7938 -88.9883 46.3688
lowerback 15.4345 2.52518 -3.61502
upperback 6.30309 2.57991 3.5475
thorax -2.27762 1.0545 5.35382
lowerneck -2.37522 -12.0339 -9.04803
upperneck 20.9498 -18.7696 11.254
head 8.86158 -8.82431 3.41926
rclavicle -2.54444e-014 -1.27222e-014
rhumerus -2.5061 -14.0996 -78.5918
rradius 27.2566
rwrist 12.4533
rhand -55.6978 -6.96256
rfingers 7.12502
rthumb -28.0474 -34.8862
lclavicle -2.54444e-014 -1.27222e-014
lhumerus -22.2193 -39.3586 103.39
lradius 93.3936
lwrist 52.3496
lhand -31.2875 15.6876
lfingers 7.12502
lthumb -4.56078 45.6185
rfemur -30.9644 15.5906 -3.11556
rtibia 29.8444
rfoot -10.0264 -28.6516
rtoes 17.582
lfemur -24.5711 -6.09982 -18.4822
ltibia 20.8111
lfoot -7.31691 4.79782
ltoes -11.6939
128
root 0.0885422 18.9173 3.63037 -27.3562 -88.813 42.0095
lowerback 15.4621 2.45102 -3.65042
upperback 6.30741 2.47859 3.63735
thorax -2.28023 1.0023 5.48839
lowerneck -2.45124 -12.0535 -9.20154
upperneck 20.8979 -18.713 11.0587
head 8.84587 -8.81816 3.38007
rclavicle 3.73715e-014 2.14687e-014
rhumerus -2.23517 -14.1929 -78.2107
rradius 26.8384
rwrist 12.6502
rhand -55.7573 -7.46793
rfingers 7.12502
rthumb -28.1043 -35.3822
lclavicle 3.73715e-014 2.14687e-014
lhumerus -22.0082 -39.2219 103.812
lradius 93.2379
lwrist 51.9912
lhand -31.7903 15.5538
lfingers 7.12502
lthumb -5.04628 45.4737
rfemur -31.1141 16.0793 -3.59426
rtibia 29.4387
rfoot -9.35695 -29.2162
rtoes 17.6165
lfemur -24.7993 -6.15399 -18.3416
ltibia 21.0482
lfoot -7.36121 4.76761
ltoes -11.6573
129
root 0.0828732 18.9067 3.57472 -23.2721 -88.5703 37.9534
lowerback 15.55 2.40901 -3.51577
upperback 6.32423 2.43727 3.59562
thorax -2.2976 0.983204 5.3724
lowerneck -2.45034 -12.1207 -9.04274
upperneck 20.7311 -18.7514 10.9226
head 8.76292 -8.8368 3.31004
rclavicle -7.15625e-015 -2.62396e-014
rhumerus -2.01805 -14.9103 -78.0476
rradius 26.4813
rwrist 13.2433
rhand -55.6268 -7.30178
rfingers 7.12502
rthumb -27.9795 -35.2365
lclavicle -7.15625e-015 -2.62396e-014
lhumerus -21.8107 -38.9933 104.296
lradius 93.1643
lwrist 51.5306
lhand -29.8184 16.8134
lfingers 7.12502
lthumb -3.14209 46.77
rfemur -31.1588 16.583 -4.06964
rtibia 29.0575
rfoot -9.16363 -29.6848
rtoes 18.2437
lfemur -25.0357 -6.32532 -18.1728
ltibia 21.3959
lfoot -7.50939 4.69053
ltoes -11.5952
130
root 0.0765948 18.895 3.51926 -17.5555 -88.3269 32.2441
lowerback 15.6835 2.34201 -3.21573
upperback 6.32559 2.38648 3.57754
thorax -2.34982 0.961847 5.18763
lowerneck -2.39486 -12.1246 -9.11446
upperneck 20.5312 -18.7284 10.9896
head 8.69585 -8.83153 3.35139
rclavicle 1.59028e-015 -6.36111e-015
rhumerus -1.8838 -14.8808 -77.7587
rradius 26.209
rwrist 13.0585
rhand -55.5601 -6.71126
rfingers 7.12502
rthumb -27.9158 -34.6563
lclavicle 1.59028e-015 -6.36111e-015
lhumerus -21.8113 -39.6672 104.36
lradius 93.1394
lwrist 51.6671
lhand -28.8483 16.1328
lfingers 7.12502
lthumb -2.20522 46.1012
rfemur -31.1684 17.217 -4.46003
rtibia 28.7336
rfoot -9.19606 -30.189
rtoes 18.9743
lfemur -25.2842 -6.47468 -17.9155
ltibia 21.7864
lfoot -7.68946 4.53431
ltoes -11.0336
131
root 0.0680055 18.8813 3.46215 -11.4186 -88.0887 26.1105
lowerback 15.8013 2.27271 -2.91444
upperback 6.313 2.3367 3.62278
thorax -2.41123 0.940752 5.07011
lowerneck -2.34579 -12.0984 -9.23399
upperneck 20.3502 -18.6759 11.1066
head 8.64299 -8.81187 3.41892
rclavicle -1.59028e-015 1.11319e-014
rhumerus -1.77235 -14.6064 -77.3994
rradius 25.9225
rwrist 12.726
rhand -55.4692 -5.73085
rfingers 7.12502
rthumb -27.8289 -33.69
lclavicle -1.59028e-015 1.11319e-014
lhumerus -21.772 -39.8053 104.702
lradius 93.1629
lwrist 51.5081
lhand -27.4569 17.217
lfingers 7.12502
lthumb -0.861392 47.195
rfemur -31.153 17.6755 -4.68533
rtibia 28.4735
rfoot -8.96716 -30.4467
rtoes 18.9783
lfemur -25.5223 -6.59947 -17.6187
ltibia 22.191
lfoot -7.85094 4.47742
ltoes -11.3512
